<svg height="577pt" viewBox="-96 -18 577 577.33169" width="577pt"
    xmlns="http://www.w3.org/2000/svg">
    <path
        d="m154.996094 277.949219c3.773437 3.011719 4.386718 8.507812 1.375 12.277343l-69.515625 87.042969c65.285156-4.363281 127.277343-30.261719 176.253906-73.644531 49.910156-44.460938 83.214844-104.578125 94.425781-170.472656l20.394532-122.996094c.507812-3.078125-.664063-6.183594-3.066407-8.164062-2.402343-1.9843755-5.679687-2.527344-8.59375-1.441407l-102.601562 38.234375-.203125.078125c-5.40625 2.171875-9.695313 6.460938-11.871094 11.875-.078125.195313-.148438.390625-.210938.589844l-25.707031 80.644531-24.96875-53.644531c-1.097656-2.351563-3.179687-4.09375-5.683593-4.753906-2.507813-.667969-5.179688-.179688-7.292969 1.320312-44.179688 31.378907-78.207031 76.152344-98.382813 129.492188-19.398437 51.640625-24.9375 107.457031-16.074218 161.902343l69.453124-86.964843c3.011719-3.765625 8.503907-4.378907 12.269532-1.375zm0 0" />
    <path
        d="m3.667969 476.179688c2.65625.003906 5.167969-1.207032 6.828125-3.285157l76.363281-95.625c-1.285156.082031-2.570313.175781-3.867187.246094-.15625.011719-.308594.011719-.464844.011719-4.242188 0-7.867188-3.050782-8.59375-7.230469-.234375-1.332031-.449219-2.660156-.664063-3.996094l-76.425781 95.703125c-2.089844 2.621094-2.5 6.210938-1.042969 9.234375 1.453125 3.019531 4.507813 4.945313 7.863281 4.945313zm0 0" />
    <path
        d="m371.835938 523.785156c-14.347657 0-21.257813-7.765625-30.003907-17.59375-9.300781-10.4375-20.867187-23.433594-43.050781-23.433594-22.175781 0-33.746094 12.996094-43.042969 23.433594-8.746093 9.828125-15.65625 17.59375-30.003906 17.59375-14.34375 0-21.246094-7.765625-29.996094-17.59375-9.292969-10.441406-20.859375-23.441406-43.039062-23.441406-22.175781 0-33.746094 13-43.039063 23.441406-8.742187 9.828125-15.652344 17.59375-29.992187 17.59375-14.347657 0-21.25-7.765625-30-17.59375-9.292969-10.4375-20.859375-23.433594-43.039063-23.433594-4.816406 0-8.730468 3.90625-8.730468 8.730469 0 4.820313 3.914062 8.734375 8.730468 8.734375 14.347656 0 21.253906 7.757813 30 17.585938 9.292969 10.441406 20.863282 23.441406 43.039063 23.441406 22.171875 0 33.746093-13 43.039062-23.441406 8.742188-9.824219 15.652344-17.585938 29.992188-17.585938 14.347656 0 21.253906 7.757813 30 17.585938 9.292969 10.441406 20.863281 23.441406 43.039062 23.441406 22.171875 0 33.75-13 43.042969-23.441406 8.753906-9.824219 15.660156-17.585938 30.003906-17.585938s21.253906 7.757813 30.003906 17.585938c9.292969 10.441406 20.863282 23.441406 43.046876 23.441406 4.824218 0 8.730468-3.910156 8.730468-8.734375s-3.90625-8.730469-8.730468-8.730469zm0 0" />
</svg>